<svg width="52" height="35" viewBox="0 0 52 35" fill="none" xmlns="http://www.w3.org/2000/svg">
<g clip-path="url(#clip0_2047_1147)">
<path d="M33.8201 27.7C39.4534 27.7 44.0201 23.1333 44.0201 17.5C44.0201 11.8667 39.4534 7.3 33.8201 7.3C28.5332 7.3 24.1858 11.3223 23.6711 16.4736C21.5871 15.5311 19.3357 14.9678 17.0302 14.8195C18.3156 6.70424 25.3433 0.5 33.8201 0.5C43.2089 0.5 50.8201 8.11116 50.8201 17.5C50.8201 26.5464 43.7539 33.9424 34.84 34.4699V34.5H23.6366V33.0163C23.6366 31.089 22.8417 29.2148 21.3849 27.8136C19.9239 26.4083 17.9172 25.5982 15.8 25.5982C13.6828 25.5982 11.6761 26.4083 10.2151 27.8136C8.75829 29.2148 7.96342 31.089 7.96342 33.0163V34.5H0.5V32.98C0.5 29.0065 2.14903 25.227 5.0334 22.4638C7.82549 19.7891 11.554 18.2737 15.4354 18.1842C15.5568 18.1814 15.6784 18.18 15.8 18.18C15.8942 18.18 15.9883 18.1809 16.0824 18.1826C19.9933 18.2523 23.7548 19.7701 26.5666 22.4638C28.1242 23.956 29.3216 25.7446 30.0935 27.7H33.8201Z" fill="#5233DD"/>
<path d="M18.9255 30.1858C19.7543 30.9066 20.22 31.8843 20.22 32.9037V34.5H11.38V32.9037C11.38 31.8843 11.8457 30.9066 12.6746 30.1858C13.5035 29.4649 14.6278 29.06 15.8 29.06C16.9722 29.06 18.0965 29.4649 18.9255 30.1858Z" fill="#5233DD"/>
<path d="M37.7145 15.8309C36.4854 15.8309 35.4892 14.8346 35.4892 13.6055V13.0491C35.4892 12.1273 34.7418 11.38 33.82 11.38C32.8982 11.38 32.151 12.1272 32.151 13.0491V13.6055C32.151 14.8346 31.1546 15.8309 29.9255 15.8309H29.3691C28.4473 15.8309 27.7 16.5782 27.7 17.5C27.7 18.4218 28.4473 19.1691 29.3691 19.1691H29.9255C31.1546 19.1691 32.151 20.1654 32.151 21.3945V21.9509C32.151 22.8728 32.8982 23.62 33.82 23.62C34.7418 23.62 35.4892 22.8728 35.4892 21.9509V21.3945C35.4892 20.1654 36.4854 19.1691 37.7145 19.1691H38.271C39.1928 19.1691 39.94 18.4218 39.94 17.5C39.94 16.5782 39.1928 15.8309 38.271 15.8309H37.7145Z" fill="#5233DD"/>
<path d="M10.0201 3.22003C10.0201 4.72222 11.2379 5.93999 12.7401 5.93999H13.42C14.5467 5.93999 15.46 6.85333 15.46 7.97999C15.46 9.10667 14.5467 10.02 13.42 10.02H12.7401C11.2379 10.02 10.0201 11.2378 10.0201 12.7399V13.42C10.0201 14.5467 9.10676 15.46 7.98009 15.46C6.85344 15.46 5.94009 14.5467 5.94009 13.42V12.74C5.94009 11.2378 4.72231 10.02 3.22009 10.02H2.54C1.41334 10.02 0.5 9.10667 0.5 7.97999C0.5 6.85333 1.41334 5.93999 2.54 5.93999H3.2201C4.72231 5.93999 5.94009 4.72221 5.94009 3.22V2.54C5.94009 1.41334 6.85344 0.5 7.98009 0.5C9.10676 0.5 10.0201 1.41334 10.0201 2.54V3.22003Z" fill="#5233DD"/>
</g>
<defs>
<clipPath id="clip0_2047_1147">
<rect width="51" height="34" fill="white" transform="translate(0.5 0.5)"/>
</clipPath>
</defs>
</svg>
